<svg width="227" height="86" viewBox="0 0 227 86" fill="none" xmlns="http://www.w3.org/2000/svg">
<g clip-path="url(#clip0)">
<g filter="url(#filter0_d)">
<path d="M31.0963 26.2024C31.9543 24.8208 32.4072 24.0823 32.4548 23.987C28.403 24.0823 24.2796 24.9161 20.0847 26.4882C15.9375 28.0128 13.5303 29.847 12.8629 31.9909C12.8152 32.1338 12.7199 32.2053 12.5769 32.2053C12.1479 32.2053 11.9333 31.8956 11.9333 31.2762C11.9333 31.181 12.124 30.5378 12.5054 29.3467C12.9344 28.1557 13.6971 26.917 14.7935 25.6307C15.8899 24.3444 17.1293 23.3915 18.5117 22.7722C20.8474 21.8193 23.7314 21.3429 27.1636 21.3429H43.3949C41.2021 23.0104 38.485 26.8694 35.2435 32.9199C32.0497 38.9704 29.5232 44.3063 27.6641 48.9275C25.0423 54.978 23.7314 59.5516 23.7314 62.6484C23.7314 65.6974 24.947 67.222 27.3781 67.222C29.4279 67.222 32.0735 65.7689 35.315 62.8627C38.5565 59.909 41.7503 56.312 44.8964 52.0719C51.0934 43.6393 55.4551 37.0885 57.9816 32.4196C60.508 27.7031 62.4625 24.6779 63.8449 23.3439C65.2273 22.0099 66.7527 21.3429 68.4211 21.3429H72.8543C70.6138 23.058 67.3485 28.2033 63.0583 36.7789C56.623 49.7374 53.4053 59.0514 53.4053 64.7208C53.4053 67.3411 54.2396 68.6512 55.908 68.6512C56.7183 68.6512 57.6717 68.3416 58.7681 67.7222H58.8396C58.9826 67.7222 59.0541 67.8651 59.0541 68.151C59.0541 69.0562 57.8624 69.8899 55.4789 70.6522C53.0955 71.4145 51.1649 71.7956 49.6872 71.7956C46.6364 71.7956 45.111 70.0328 45.111 66.5073C45.111 64.7446 45.7306 61.9337 46.97 58.0747C48.2094 54.1681 49.7825 50.1424 51.6893 45.9976C44.5866 56.574 39.2953 63.4106 35.8155 66.5073C31.9543 69.9852 28.3791 71.7241 25.09 71.7241C19.6081 71.7241 16.8671 69.08 16.8671 63.7918C16.8671 59.8851 18.2972 54.3349 21.1573 47.141C24.0651 39.8994 27.3781 32.9199 31.0963 26.2024ZM115.247 26.4168L105.165 25.988C104.689 25.988 103.116 28.8465 100.446 34.5635C97.7768 40.2329 95.4649 45.7355 93.5104 51.0714C91.556 56.4073 90.5788 60.2663 90.5788 62.6484C90.5788 64.9828 91.3177 66.15 92.7954 66.15C94.3208 66.15 96.2276 64.6017 98.5157 61.505C98.754 61.2191 98.9924 61.0762 99.2307 61.0762C99.4691 61.0762 99.5882 61.2906 99.5882 61.7194C99.5882 62.1481 99.2546 62.9342 98.5872 64.0776C97.9675 65.221 97.1333 66.4597 96.0846 67.7937C95.0358 69.08 93.6773 70.2234 92.0089 71.2239C90.3405 72.272 88.6244 72.7961 86.8606 72.7961C84.2388 72.7961 82.9279 70.9857 82.9279 67.3649C82.9279 62.8866 85.1922 55.2639 89.7208 44.4968C92.9622 36.9218 95.9416 30.6331 98.6587 25.6307H97.7291L90.3643 25.4878C86.2648 25.4878 82.6896 26.0118 79.6388 27.0599C77.9704 27.6316 76.6356 28.4892 75.6346 29.6326C74.6812 30.7284 74.2045 32.0623 74.2045 33.6345L74.7765 36.6359C74.7765 37.1124 74.5382 37.3506 74.0615 37.3506C73.4418 37.3506 72.9413 36.755 72.5599 35.564C72.1786 34.3253 71.9879 33.2534 71.9879 32.3482C71.9879 30.109 72.5123 28.2033 73.561 26.6312C74.6097 25.059 76.0398 23.8679 77.8512 23.058C81.2834 21.5335 85.073 20.7712 89.2202 20.7712C93.3674 20.7712 98.0628 21.0333 103.306 21.5573C108.55 22.0337 113.317 22.2719 117.607 22.2719C121.897 22.2719 124.686 21.605 125.973 20.271C126.116 20.6045 126.188 20.938 126.188 21.2715C126.188 22.8436 125.186 24.1062 123.184 25.059C121.182 25.9642 118.537 26.4168 115.247 26.4168ZM129.664 42.4244L133.097 42.4959C133.812 42.4959 134.264 42.4721 134.455 42.4244C133.12 43.3296 131.19 46.4978 128.663 51.929C126.185 57.3125 124.945 61.1953 124.945 63.5774C124.945 65.0066 125.422 65.7213 126.375 65.7213C126.995 65.7213 127.829 65.3163 128.878 64.5064C129.974 63.6965 130.904 62.8151 131.666 61.8623C132.429 60.8618 133.24 59.6469 134.098 58.2177C135.003 56.7884 135.766 55.5497 136.386 54.5016C137.053 53.4535 137.434 52.9294 137.53 52.9294C137.816 52.9294 137.959 53.382 137.959 54.2872C137.959 55.1924 137.697 56.05 137.172 56.8599C131.261 66.7217 126.328 71.6527 122.371 71.6527C119.702 71.6527 118.367 69.6755 118.367 65.7213C118.367 64.4826 118.462 63.2915 118.653 62.1481C114.172 68.4845 109.906 71.6527 105.854 71.6527C104.662 71.6527 103.685 71.1524 102.922 70.1519C102.207 69.1515 101.85 67.6746 101.85 65.7213C101.85 63.7679 102.541 60.5521 103.923 56.0738C105.306 51.5478 106.998 47.8318 109 44.9256C109.477 44.211 109.977 43.7822 110.501 43.6393C111.073 43.4487 112.122 43.3534 113.648 43.3534H117.08C115.888 44.9733 114.601 47.1648 113.219 49.928C110.072 56.4549 108.499 61.2429 108.499 64.292C108.499 66.1024 109.143 67.0076 110.43 67.0076C111.765 67.0076 113.338 65.7451 115.149 63.2201C116.961 60.695 118.891 57.4316 120.941 53.4297C123.038 49.3801 124.254 47.0933 124.588 46.5693C126.351 43.806 128.044 42.4244 129.664 42.4244ZM168.363 56.8599C166.599 59.8137 164.979 62.291 163.501 64.292C162.071 66.2453 160.426 67.9604 158.567 69.4373C156.708 70.9142 155.016 71.6527 153.491 71.6527C150.678 71.6527 149.272 70.1043 149.272 67.0076C149.272 63.9109 151.06 57.6936 154.635 48.3558C154.825 47.927 154.921 47.4745 154.921 46.998C154.921 45.9976 154.277 45.4973 152.99 45.4973C151.751 45.4973 150.511 45.9023 149.272 46.7122C148.08 47.4745 146.984 48.594 145.983 50.0709C144.982 51.5002 144.076 52.9771 143.266 54.5016C142.455 55.9785 141.693 57.6936 140.978 59.6469C140.31 61.6002 139.762 63.2439 139.333 64.5779C138.952 65.8642 138.546 67.2696 138.117 68.7942C137.736 70.2711 137.522 71.081 137.474 71.2239H130.538C130.538 70.2234 132.636 64.4826 136.83 54.0014C138.546 49.0943 139.405 45.6641 139.405 43.7107C139.405 43.2343 139.333 42.877 139.19 42.6388H142.193C143.862 42.6388 144.934 42.8056 145.411 43.1391C145.887 43.4725 146.126 43.9251 146.126 44.4968C146.126 45.0685 145.864 46.2358 145.339 47.9985C149.344 44.1872 153.372 42.2815 157.423 42.2815C160.14 42.2815 161.499 43.5202 161.499 45.9976C161.499 46.8075 161.38 47.6174 161.141 48.4273C160.903 49.2372 160.307 50.857 159.354 53.2868C157.257 58.6226 156.208 62.1958 156.208 64.0062C156.208 65.1496 156.637 65.7213 157.495 65.7213C158.115 65.7213 158.972 65.2925 160.069 64.4349C161.213 63.5774 162.142 62.696 162.857 61.7908C163.62 60.838 164.43 59.6708 165.288 58.2891C166.194 56.8599 166.957 55.6212 167.576 54.5731C168.196 53.525 168.554 53.0009 168.649 53.0009C168.935 53.0009 169.078 53.4535 169.078 54.3587C169.078 55.2162 168.84 56.05 168.363 56.8599ZM194.358 52.6436C194.644 52.6436 194.788 53.12 194.788 54.0728C194.788 54.978 194.406 56.0738 193.643 57.3601C192.881 58.6464 192.118 59.8613 191.355 61.0047C190.64 62.1481 189.663 63.4821 188.424 65.0066C187.184 66.5312 185.969 67.746 184.777 68.6512C181.774 70.8427 178.747 71.9385 175.696 71.9385C172.693 71.9385 170.262 71.1762 168.403 69.6517C166.544 68.0795 165.614 65.6974 165.614 62.5054C165.614 57.646 167.402 53.1438 170.977 48.999C174.552 44.8542 178.723 42.7817 183.49 42.7817C185.635 42.7817 187.351 43.3534 188.638 44.4968C189.925 45.5926 190.569 46.9266 190.569 48.4987C190.569 51.1667 189.306 53.3106 186.779 54.9304C184.253 56.5502 181.273 57.3601 177.841 57.3601C175.839 57.3601 174.361 57.0981 173.408 56.574C172.502 59.0038 172.049 61.1476 172.049 63.0057C172.049 67.0076 173.742 69.0085 177.126 69.0085C179.128 69.0085 181.178 68.2463 183.275 66.7217C185.421 65.1496 187.232 63.4106 188.71 61.505C190.235 59.5516 191.951 56.7646 193.858 53.1438C194.049 52.8103 194.215 52.6436 194.358 52.6436ZM186.779 46.998C186.779 45.6164 186.112 44.9256 184.777 44.9256C182.918 44.9256 180.844 46.069 178.556 48.3558C176.268 50.6426 175.124 52.5007 175.124 53.9299C175.124 54.8827 176.03 55.3592 177.841 55.3592C179.653 55.3592 181.536 54.4778 183.49 52.715C185.492 50.9523 186.588 49.0466 186.779 46.998ZM210.546 42.4959L214.193 42.5673H214.908C214.193 43.0914 213.168 44.6398 211.833 47.2124C210.546 49.7851 209.569 51.7384 208.902 53.0724C208.282 54.3587 207.567 56.1214 206.756 58.3606C205.994 60.5521 205.612 62.3387 205.612 63.7203C205.612 65.1019 206.089 65.7927 207.042 65.7927C207.662 65.7451 208.52 65.3163 209.617 64.5064C210.761 63.6488 211.69 62.7675 212.405 61.8623C213.168 60.9094 213.978 59.7184 214.836 58.2891C215.742 56.8122 216.505 55.5497 217.124 54.5016C217.792 53.4059 218.173 52.858 218.268 52.858C218.602 52.858 218.769 53.3106 218.769 54.2158C218.769 55.0733 218.531 55.9071 218.054 56.717C216.004 60.0995 214.312 62.696 212.977 64.5064C211.642 66.3168 210.022 67.9842 208.115 69.5088C206.256 70.9857 204.564 71.7241 203.038 71.7241C200.321 71.7241 198.963 69.7232 198.963 65.7213C198.963 63.0057 199.487 59.9328 200.536 56.5026C201.584 53.0724 203.134 49.7613 205.183 46.5693C203.515 47.9032 201.846 48.5702 200.178 48.5702C199.654 48.5702 199.106 48.4511 198.533 48.2129C195.149 54.8828 193.314 58.2177 193.028 58.2177C192.789 58.2177 192.67 57.8365 192.67 57.0743C192.67 56.2644 192.956 55.1686 193.528 53.787C194.148 52.3577 194.791 50.9999 195.459 49.7136C196.174 48.4273 196.555 47.7127 196.603 47.5697C194.887 46.7122 194.029 45.3306 194.029 43.4249C194.029 42.4721 194.315 41.6145 194.887 40.8522C195.507 40.09 196.341 39.7088 197.389 39.7088C198.438 39.7088 199.296 40.0423 199.964 40.7093C199.868 40.9952 199.821 41.4239 199.821 41.9956C199.821 43.282 200.273 44.3063 201.179 45.0685C202.133 45.7832 203.277 46.1405 204.611 46.1405C204.993 46.1405 205.279 46.1167 205.469 46.069C207.138 43.6869 208.83 42.4959 210.546 42.4959Z" fill="white"/>
</g>
</g>
<defs>
<filter id="filter0_d" x="-14.0667" y="-5.72901" width="246.836" height="92.5251" filterUnits="userSpaceOnUse" color-interpolation-filters="sRGB">
<feFlood flood-opacity="0" result="BackgroundImageFix"/>
<feColorMatrix in="SourceAlpha" type="matrix" values="0 0 0 0 0 0 0 0 0 0 0 0 0 0 0 0 0 0 127 0"/>
<feOffset dx="-6" dy="-6"/>
<feGaussianBlur stdDeviation="10"/>
<feColorMatrix type="matrix" values="0 0 0 0 0.239216 0 0 0 0 0.266667 0 0 0 0 0.262745 0 0 0 1 0"/>
<feBlend mode="normal" in2="BackgroundImageFix" result="effect1_dropShadow"/>
<feBlend mode="normal" in="SourceGraphic" in2="effect1_dropShadow" result="shape"/>
</filter>
<clipPath id="clip0">
<rect width="227" height="86" fill="white"/>
</clipPath>
</defs>
</svg>
